<?xml version="1.0" encoding="utf-8"?>
<!-- Generator: Adobe Illustrator 25.0.1, SVG Export Plug-In . SVG Version: 6.00 Build 0)  -->
<svg version="1.0" id="katman_1" xmlns="http://www.w3.org/2000/svg" xmlns:xlink="http://www.w3.org/1999/xlink" x="0px" y="0px"
	 viewBox="0 0 370 400" style="enable-background:new 0 0 560 400;" xml:space="preserve">
<style type="text/css">
	.st0{opacity:0.2;}
	.st1{fill:#FFFFFF;}
	.st2{opacity:0.12;}
	.st3{fill:url(#SVGID_1_);}
	.st4{fill:url(#SVGID_2_);}
	.st5{fill:url(#SVGID_3_);}
	.st6{fill:url(#SVGID_4_);}
	.st7{fill:url(#SVGID_5_);}
	.st8{fill:none;}
</style>
<g transform="matrix(4.11711 0 0 4.11711 148.253 65)">
	<g class="st0">
		
			<image style="overflow:visible;enable-background:new    ;" width="178" height="71" xlink:href="68299541.png"  transform="matrix(0.2387 0 0 0.2366 15.18 48.78)">
		</image>
		<path class="st1" d="M19.9,49c-1.8,0-3.2,1.5-3.2,3.2c0,1.1,0.6,2.2,1.6,2.8l11.4,6.4c0.9,0.5,2,0.8,3.1,0.8
			c0.6,0,1.2-0.1,1.7-0.2l17.1-4.9c2.6-0.8,4.4-3.2,4.4-5.9V49L19.9,49z"/>
	</g>
	<g class="st2">
		
			<image style="overflow:visible;enable-background:new    ;" width="170" height="62" xlink:href="68299543.png"  transform="matrix(0.2386 0 0 0.2361 16.11 48.51)">
		</image>
		<path class="st1" d="M19.9,49c-1.8,0-3.2,1.5-3.2,3.2c0,1.1,0.6,2.2,1.6,2.8l11.4,6.4c0.9,0.5,2,0.8,3.1,0.8
			c0.6,0,1.2-0.1,1.7-0.2l17.1-4.9c2.6-0.8,4.4-3.2,4.4-5.9V49L19.9,49z"/>
	</g>
	<g>
		
			<linearGradient id="SVGID_1_" gradientUnits="userSpaceOnUse" x1="-200.5928" y1="164.8693" x2="-199.5928" y2="164.8693" gradientTransform="matrix(0 243.8152 243.8152 0 -40152.4414 48906.1602)">
			<stop  offset="0" style="stop-color:#FFB900"/>
			<stop  offset="0.17" style="stop-color:#EF8400"/>
			<stop  offset="0.31" style="stop-color:#E25C01"/>
			<stop  offset="0.43" style="stop-color:#DB4401"/>
			<stop  offset="0.5" style="stop-color:#D83B01"/>
			<stop  offset="1" style="stop-color:#D83B01"/>
		</linearGradient>
		<path class="st3" d="M34.4,2L39,12.5V49l-4.5,13l17.1-4.9c2.6-0.8,4.4-3.2,4.4-5.9V12.7c0-2.7-1.8-5.1-4.4-5.9L34.4,2z"/>
		
			<linearGradient id="SVGID_2_" gradientUnits="userSpaceOnUse" x1="-201.0512" y1="165.0029" x2="-200.0512" y2="165.0029" gradientTransform="matrix(-129.1126 184.3642 184.3642 129.1126 -56344.332 15763.3584)">
			<stop  offset="0" style="stop-color:#800600"/>
			<stop  offset="0.6" style="stop-color:#C72127"/>
			<stop  offset="0.73" style="stop-color:#C13959"/>
			<stop  offset="0.85" style="stop-color:#BC4B81"/>
			<stop  offset="0.94" style="stop-color:#B95799"/>
			<stop  offset="1" style="stop-color:#B85BA2"/>
		</linearGradient>
		<path class="st4" d="M12.7,48.6l5-2.7c1.4-0.8,2.3-2.2,2.3-3.8V22.4c0-1.8,1.2-3.5,2.9-4.1L39,12.5V8.1c0-2.8-1.9-5.3-4.6-6.1
			c-0.6-0.2-1.1-0.2-1.7-0.2c-1.1,0-2.2,0.3-3.1,0.8L11.1,13.1C9.2,14.2,8,16.2,8,18.4v27.4v0c0,1.8,1.4,3.2,3.2,3.2
			C11.7,49,12.3,48.9,12.7,48.6z"/>
		
			<linearGradient id="SVGID_3_" gradientUnits="userSpaceOnUse" x1="-156.3795" y1="130.6828" x2="-115.4395" y2="130.6828" gradientTransform="matrix(4.1171 0 0 -4.1171 662.3314 593.6606)">
			<stop  offset="0" style="stop-color:#F32B44"/>
			<stop  offset="0.6" style="stop-color:#A4070A"/>
			<stop  offset="1" style="stop-color:#A4070A"/>
		</linearGradient>
		<path class="st5" d="M39,49H19.9c-1.8,0-3.2,1.5-3.2,3.2c0,1.1,0.6,2.2,1.6,2.8l11.4,6.4c0.9,0.5,2,0.8,3.1,0.8
			c0.6,0,1.2-0.1,1.7-0.2c2.7-0.8,4.5-3.2,4.5-6V49z"/>
		
			<linearGradient id="SVGID_4_" gradientUnits="userSpaceOnUse" x1="-201.5007" y1="168.019" x2="-200.5007" y2="168.019" gradientTransform="matrix(-27.3376 39.0302 39.0302 27.3376 -12031.2002 3271.1387)">
			<stop  offset="0" style="stop-color:#000000;stop-opacity:0.4"/>
			<stop  offset="1" style="stop-color:#000000;stop-opacity:0"/>
		</linearGradient>
		<path class="st6" d="M12.7,48.6l5-2.7c1.4-0.8,2.3-2.2,2.3-3.8V22.4c0-1.8,1.2-3.5,2.9-4.1L39,12.5V8.1c0-2.8-1.9-5.3-4.6-6.1
			c-0.6-0.2-1.1-0.2-1.7-0.2c-1.1,0-2.2,0.3-3.1,0.8L11.1,13.1C9.2,14.2,8,16.2,8,18.4v27.4v0c0,1.8,1.4,3.2,3.2,3.2
			C11.7,49,12.3,48.9,12.7,48.6z"/>
		
			<linearGradient id="SVGID_5_" gradientUnits="userSpaceOnUse" x1="-203.1939" y1="165.0863" x2="-202.1939" y2="165.0863" gradientTransform="matrix(-75.4666 -6.5874 -6.5874 75.4666 -14200.5479 -13740.4736)">
			<stop  offset="0" style="stop-color:#000000;stop-opacity:0.4"/>
			<stop  offset="1" style="stop-color:#000000;stop-opacity:0"/>
		</linearGradient>
		<path class="st7" d="M39,49H19.9c-1.8,0-3.2,1.5-3.2,3.2c0,1.1,0.6,2.2,1.6,2.8l11.4,6.4c0.9,0.5,2,0.8,3.1,0.8
			c0.6,0,1.2-0.1,1.7-0.2c2.7-0.8,4.5-3.2,4.5-6V49z"/>
	</g>
	<path class="st8" d="M0,0h64v64H0V0z"/>
</g>
</svg>
